<?xml version="1.0" encoding="utf-8"?>
<!-- Generator: Adobe Illustrator 26.5.0, SVG Export Plug-In . SVG Version: 6.00 Build 0)  -->
<svg version="1.1" id="Ebene_1" xmlns="http://www.w3.org/2000/svg" xmlns:xlink="http://www.w3.org/1999/xlink" x="0px" y="0px"
	 viewBox="0 0 1140 480.8" style="enable-background:new 0 0 1140 480.8;" xml:space="preserve">
<style type="text/css">
	.st0{fill:#113042;}
	.st1{fill:#3790AF;}
</style>
<g>
	<g>
		<path class="st0" d="M655.6,221.6c-5.4-11.3-14-20.4-25.6-27.4c-11.7-7-24.7-10.6-39.2-10.6c-15.1,0-28.6,3.5-40.5,10.4
			c-12,6.9-21.4,16.8-28.2,29.5c-6.8,12.8-10.2,27.6-10.2,44.5s3.4,31.8,10.1,44.6c6.7,12.9,16.1,22.8,28,29.8
			c12,7,25.5,10.6,40.5,10.6c15.5,0,28.9-3.7,40.4-11c11.5-7.3,19.7-16.7,24.7-28.2v36.8h21.1V127.5h-21.1V221.6z M647.4,303.3
			c-5.4,10.1-12.8,17.8-22.2,23.2c-9.3,5.4-19.6,8.1-30.9,8.1c-11.7,0-22.1-2.7-31.3-8c-9.2-5.3-16.5-13.1-21.9-23.2
			c-5.3-10.1-8-22-8-35.4c0-13.7,2.7-25.5,8-35.4c5.3-9.9,12.6-17.5,21.9-22.8c9.2-5.2,19.7-7.8,31.3-7.8c11.3,0,21.6,2.7,30.9,8.1
			c9.3,5.4,16.7,13.2,22.2,23.2c5.4,10.1,8.1,21.7,8.1,35C655.6,281.6,652.8,293.2,647.4,303.3z"/>
		<path class="st0" d="M859,222.2c-5-11.3-13.2-20.5-24.6-27.7c-11.4-7.2-24.9-10.9-40.5-10.9c-15.1,0-28.6,3.5-40.5,10.4
			c-12,6.9-21.3,16.8-28,29.5c-6.7,12.8-10.1,27.6-10.1,44.5s3.4,31.8,10.1,44.6c6.7,12.9,16.1,22.8,28,29.8
			c12,7,25.4,10.6,40.2,10.6c15.7,0,29.2-3.7,40.5-11c11.4-7.3,19.6-16.6,24.9-27.9v36.5h21.1V186H859V222.2z M850.9,303.3
			c-5.4,10.1-12.8,17.8-22.2,23.2c-9.3,5.4-19.6,8.1-30.9,8.1c-11.7,0-22.1-2.7-31.3-8c-9.2-5.3-16.5-13.1-21.9-23.2
			c-5.3-10.1-8-22-8-35.4c0-13.7,2.7-25.5,8-35.4c5.3-9.9,12.6-17.5,21.9-22.8c9.2-5.2,19.7-7.8,31.3-7.8c11.3,0,21.6,2.7,30.9,8.1
			c9.3,5.4,16.7,13.2,22.2,23.2c5.4,10.1,8.1,21.7,8.1,35C859,281.6,856.3,293.2,850.9,303.3z"/>
		<rect x="928.4" y="127.5" class="st0" width="21.1" height="223.1"/>
		<path class="st0" d="M1118.9,186v89.5c0,19.5-4.7,34.3-14.2,44.3c-9.4,10.1-22.1,15.1-38,15.1c-15.5,0-27.7-4.7-36.6-14.2
			c-8.9-9.4-13.4-23.1-13.4-41V186h-20.8v96.2c0,23.1,6.2,40.7,18.7,52.9c12.5,12.2,28.5,18.2,48.2,18.2c12.5,0,23.7-2.7,33.8-8.1
			c10-5.4,17.5-13.3,22.3-23.5v28.9h21.1V186H1118.9z"/>
	</g>
	<g>
		<path class="st1" d="M282.6,410.9L282.6,410.9c8.6-8.6,8.6-22.5,0-31.1l-1.6-1.6c-8.6-8.6-22.5-8.6-31.1,0l0,0
			c-8.6,8.6-8.6,22.5,0,31.1l1.6,1.6C260.1,419.5,274,419.5,282.6,410.9z"/>
		<path class="st0" d="M59.5,59.5L59.5,59.5c-79.3,79.3-79.3,207.9,0,287.3L186.8,474c9,9,23.7,9,32.8,0l0,0c9-9,9-23.7,0-32.8
			L114.1,335.9l0,0l-22.5-22.5C30,251.8,30,152,91.6,90.4l0,0c61.6-61.6,161.4-61.6,223,0l0,0c57.2,57.2,61.3,147.5,12.1,209.4
			l-31.6-31.6c30.7-43.8,26.5-104.6-12.6-143.7l0,0c-43.8-43.8-114.9-43.8-158.7,0l0,0c-43.8,43.8-43.8,114.9,0,158.7l63.8,63.8
			c8.6,8.6,22.5,8.6,31.1,0l0,0c8.6-8.6,8.6-22.5,0-31.1l-42.3-42.3l0,0l-20.5-20.5c-26.1-26.1-26.1-68.4,0-94.5l0,0
			c26.1-26.1,68.4-26.1,94.5,0l0,0c26.1,26.1,26.1,68.4,0,94.5l0,0c-8.9,8.9-8.9,23.3,0,32.2l12.4,12.4l2.6,2.6l31.1,31.1l16.7,16.7
			c8.9,8.9,23.3,8.9,32.2,0l1.4-1.4c79.3-79.3,79.3-207.9,0-287.3l0,0C267.4-19.8,138.8-19.8,59.5,59.5z"/>
	</g>
</g>
</svg>
