<?xml version="1.0" encoding="utf-8"?>
<!-- Generator: Adobe Illustrator 26.5.0, SVG Export Plug-In . SVG Version: 6.00 Build 0)  -->
<svg version="1.1" id="Ebene_1" xmlns="http://www.w3.org/2000/svg" xmlns:xlink="http://www.w3.org/1999/xlink" x="0px" y="0px"
	 viewBox="0 0 1503.6 363.9" style="enable-background:new 0 0 1503.6 363.9;" xml:space="preserve">
<style type="text/css">
	.st0{fill:#2D2D2B;}
	.st1{fill:#B6172F;}
</style>
<g>
	<path class="st0" d="M511.5,102.5h36.3c11.8,0,20.6-2.8,26.4-8.5c5.8-5.7,8.7-13.6,8.7-23.8c0-9.9-2.9-17.6-8.7-23.1
		c-5.8-5.5-14.6-8.2-26.4-8.2h-36.3V102.5z M579.8,219.5L532,135.1h-20.5v84.5H468V2.8h81.4c16.8,0,31.1,3,42.9,8.9
		c11.8,5.9,20.7,13.9,26.5,23.9c5.9,10,8.9,21.3,8.9,33.7c0,14.3-4.1,27.2-12.4,38.7c-8.3,11.5-20.6,19.4-37,23.8l51.9,87.9H579.8z"
		/>
	<polygon class="st0" points="710.5,37.9 710.5,92.2 783.5,92.2 783.5,126.7 710.5,126.7 710.5,184.1 792.8,184.1 792.8,219.5 
		667.1,219.5 667.1,2.5 792.8,2.5 792.8,37.9 	"/>
	<polygon class="st0" points="1027,2.8 947.5,219.5 894.7,219.5 815.2,2.8 861.8,2.8 921.4,175.1 980.7,2.8 	"/>
	<rect x="1053.1" y="2.8" class="st0" width="43.5" height="216.8"/>
	<path class="st0" d="M1143.3,53.6c9.6-16.9,22.8-30,39.4-39.4C1199.4,4.7,1218,0,1238.7,0c24.2,0,45.4,6.2,63.7,18.6
		c18.2,12.4,30.9,29.6,38.2,51.6h-50c-5-10.4-12-18.1-21-23.3c-9-5.2-19.4-7.8-31.2-7.8c-12.6,0-23.9,2.9-33.7,8.9
		c-9.8,5.9-17.5,14.2-23,25c-5.5,10.8-8.2,23.4-8.2,37.9c0,14.3,2.7,26.9,8.2,37.7c5.5,10.9,13.1,19.3,23,25.2
		c9.8,5.9,21.1,8.9,33.7,8.9c11.8,0,22.2-2.6,31.2-7.9c9-5.3,16-13.1,21-23.4h50c-7.2,22.2-19.9,39.4-38,51.7
		c-18.1,12.3-39.4,18.5-63.8,18.5c-20.7,0-39.4-4.7-56.1-14.1c-16.7-9.4-29.8-22.5-39.4-39.3c-9.6-16.8-14.4-35.8-14.4-57.1
		C1128.8,89.5,1133.6,70.4,1143.3,53.6"/>
	<polygon class="st0" points="1421.3,37.9 1421.3,92.2 1494.3,92.2 1494.3,126.7 1421.3,126.7 1421.3,184.1 1503.6,184.1 
		1503.6,219.5 1377.9,219.5 1377.9,2.5 1503.6,2.5 1503.6,37.9 	"/>
	<polygon class="st0" points="598.2,244.5 598.2,363.9 574.2,363.9 574.2,286.2 542.3,363.9 524.1,363.9 492,286.2 492,363.9 
		468,363.9 468,244.5 495.2,244.5 533.2,333.3 571.2,244.5 	"/>
	<polygon class="st0" points="645.8,263.8 645.8,293.8 685.9,293.8 685.9,312.7 645.8,312.7 645.8,344.4 691.1,344.4 691.1,363.9 
		621.8,363.9 621.8,244.3 691.1,244.3 691.1,263.8 	"/>
	<path class="st0" d="M782.8,333.3c6.8-6.8,10.3-16.5,10.3-28.9c0-12.4-3.4-22.2-10.3-29.2c-6.8-7-16.5-10.5-29.1-10.5h-16.9v78.9
		h16.9C766.2,343.5,775.9,340.1,782.8,333.3 M787.6,251.8c9.5,4.9,16.9,11.9,22.1,21c5.2,9.1,7.8,19.6,7.8,31.6
		c0,12-2.6,22.4-7.8,31.4c-5.2,9-12.5,15.9-22.1,20.8c-9.5,4.9-20.6,7.4-33.1,7.4h-41.7V244.5h41.7
		C767.1,244.5,778.1,246.9,787.6,251.8"/>
	<rect x="835.5" y="244.5" class="st0" width="24" height="119.4"/>
	<path class="st0" d="M949.7,322l-17.3-50l-17.3,50H949.7z M956.2,341.1h-47.6l-7.9,22.8h-25.1l42.9-119.6h27.9l42.9,119.6h-25.3
		L956.2,341.1z"/>
	<path class="st1" d="M0,2.8h293.3c0,0,96-4.5,100.5,97.5c4.5,102-108,105-108,105H38.7v121.3h43.2v-83.4h148.9l48.4,83.4h47.6
		l-46.2-84.1h46.9L394,363.9H258.3l-47.6-81.1h-92.3v81.1H0V164.4h294.1c0,0,57.3,1.5,59.6-63.3c2.2-64.8-73-58.8-73-58.8H37.2v40.2
		h242.7c0,0,30.5-2.2,31.3,18.6c0.7,20.8-21.6,20.1-21.6,20.1H0V2.8z"/>
</g>
</svg>
